<?xml version="1.0" encoding="utf-8"?>
<!-- Generator: Adobe Illustrator 16.0.4, SVG Export Plug-In . SVG Version: 6.00 Build 0)  -->
<!DOCTYPE svg PUBLIC "-//W3C//DTD SVG 1.1//EN" "http://www.w3.org/Graphics/SVG/1.1/DTD/svg11.dtd">
<svg version="1.1" id="Laag_1" xmlns="http://www.w3.org/2000/svg" xmlns:xlink="http://www.w3.org/1999/xlink" x="0px" y="0px"
	 width="1024px" height="768px" viewBox="0 0 1024 768" enable-background="new 0 0 1024 768" xml:space="preserve">
<g>
	<path fill="#FFFFFF" d="M239.747,275.401c-0.613,0-1.208-0.252-1.623-0.685l-6.183-6.166c-2.109,1.46-4.634,2.235-7.194,2.235
		c-7.014,0-12.692-5.679-12.692-12.692s5.678-12.692,12.692-12.692c7.014,0,12.692,5.679,12.692,12.692
		c0,2.56-0.775,5.084-2.235,7.193l6.183,6.184c0.415,0.416,0.667,1.011,0.667,1.623
		C242.054,274.355,241.008,275.401,239.747,275.401z M224.747,250.017c-4.454,0-8.077,3.624-8.077,8.077s3.624,8.077,8.077,8.077
		s8.077-3.624,8.077-8.077S229.2,250.017,224.747,250.017z"/>
</g>
</svg>
